#!OML:ASF H:\Terrain\Patient Classification 1\Walking\liu\liu.ASF
:FULLY-SPECIFIED
:DEGREES
80
root 9.30421 16.4007 -25.6577 4.23885 -8.12939 2.28199
lowerback -4.89737 -0.98588 -3.71166
upperback -1.6151 -1.17795 2.60099
thorax 1.21046 -0.588223 4.70608
lowerneck -22.067 -4.01792 -11.5738
upperneck 19.139 -4.61309 11.8624
head 10.3226 -1.59702 5.49477
rclavicle -4.73356e-015 -2.38542e-014
rhumerus -43.819 13.7655 -89.1808
rradius 40.1193
rwrist -22.1222
rhand -30.786 -22.9514
rfingers 7.12502
rthumb -4.07653 -52.8921
lclavicle -4.73356e-015 -2.38542e-014
lhumerus -28.4757 -11.7279 87.4952
lradius 25.1592
lwrist 0.231911
lhand -2.86671 -16.397
lfingers 7.12502
lthumb 22.8419 12.2704
rfemur -20.6665 -0.0440895 17.9459
rtibia 62.9596
rfoot -14.832 -12.3029
rtoes -10.6399
lfemur -16.9752 3.1197 -26.9047
ltibia 27.5837
lfoot -14.9611 9.45336
ltoes 1.27045
81
root 9.31007 16.3957 -25.5457 4.31647 -7.99718 2.34871
lowerback -5.11087 -1.0495 -3.85034
upperback -1.57014 -1.25026 2.63018
thorax 1.38736 -0.629676 4.80774
lowerneck -22.1503 -3.98994 -11.7187
upperneck 19.2576 -4.57 12.0422
head 10.3834 -1.56541 5.59926
rclavicle 1.76546e-014 7.15625e-015
rhumerus -43.7285 13.9667 -89.107
rradius 39.9999
rwrist -22.1318
rhand -30.6628 -22.6642
rfingers 7.12502
rthumb -3.9575 -52.6072
lclavicle 1.76546e-014 7.15625e-015
lhumerus -27.802 -12.1266 87.4087
lradius 25.7416
lwrist 1.08947
lhand -12.9232 -23.9751
lfingers 7.12502
lthumb 13.1672 5.58908
rfemur -21.7996 0.477548 18.0593
rtibia 62.4649
rfoot -15.7965 -12.3331
rtoes -9.95646
lfemur -16.593 2.93309 -27.0296
ltibia 27.5542
lfoot -15.7175 9.37339
ltoes 0.855284
82
root 9.31664 16.3923 -25.4345 4.2664 -7.74479 2.39087
lowerback -5.13439 -1.13951 -3.83401
upperback -1.51495 -1.36968 2.59403
thorax 1.4697 -0.692476 4.75176
lowerneck -22.2321 -3.94177 -11.6676
upperneck 19.3785 -4.5256 12.0615
head 10.4351 -1.53681 5.61002
rclavicle -1.65364e-014 3.10104e-014
rhumerus -43.7673 14.0161 -89.1181
rradius 40.0907
rwrist -22.0167
rhand -30.631 -22.5415
rfingers 7.12502
rthumb -3.9268 -52.485
lclavicle -1.65364e-014 3.10104e-014
lhumerus -27.2411 -12.5753 87.2277
lradius 26.2781
lwrist 1.59952
lhand -11.1125 -23.2429
lfingers 7.12502
lthumb 14.9121 6.20038
rfemur -22.8098 0.885291 18.1745
rtibia 61.9478
rfoot -16.5342 -12.4245
rtoes -11.279
lfemur -16.0539 2.83638 -27.1292
ltibia 27.479
lfoot -15.8584 9.20317
ltoes -0.122085
83
root 9.32359 16.3847 -25.3211 4.10147 -7.46086 2.50374
lowerback -5.02824 -1.211 -3.90958
upperback -1.50296 -1.46382 2.56402
thorax 1.43427 -0.739042 4.75856
lowerneck -22.3555 -3.98132 -11.6757
upperneck 19.7455 -4.56661 11.9463
head 10.5931 -1.56725 5.5762
rclavicle -2.00524e-014 3.18055e-015
rhumerus -43.8526 13.7666 -89.0045
rradius 40.0196
rwrist -21.7294
rhand -30.69 -23.203
rfingers 7.12502
rthumb -3.98376 -53.1455
lclavicle -2.00524e-014 3.18055e-015
lhumerus -26.802 -13.014 87.1404
lradius 26.8783
lwrist 1.9389
lhand -10.0739 -22.9826
lfingers 7.12502
lthumb 15.9125 6.3837
rfemur -23.6641 1.14515 18.1767
rtibia 61.3726
rfoot -17.074 -12.5931
rtoes -10.8607
lfemur -15.3819 2.69433 -27.3161
ltibia 27.3581
lfoot -15.4155 9.28101
ltoes -0.941018
84
root 9.33351 16.3684 -25.2056 3.80439 -7.26884 2.72115
lowerback -4.90189 -1.23296 -4.06402
upperback -1.39211 -1.4884 2.51824
thorax 1.4834 -0.755035 4.79798
lowerneck -22.4898 -4.05512 -11.8265
upperneck 19.9708 -4.59689 11.8504
head 10.705 -1.60122 5.57037
rclavicle 2.85504e-014 -4.77083e-015
rhumerus -43.8484 13.6451 -88.8119
rradius 39.9047
rwrist -21.7357
rhand -30.858 -23.9952
rfingers 7.12502
rthumb -4.14604 -53.9346
lclavicle 2.85504e-014 -4.77083e-015
lhumerus -26.2845 -13.6231 87.1629
lradius 27.5859
lwrist 2.53601
lhand -9.98592 -23.119
lfingers 7.12502
lthumb 15.9972 6.2405
rfemur -24.2983 1.344 18.0412
rtibia 60.7022
rfoot -17.6367 -12.8536
rtoes -9.16883
lfemur -14.5344 2.49812 -27.631
ltibia 27.2434
lfoot -15.4415 9.48677
ltoes -2.28445
